M48
; DRILL file {KiCad 8.0.4} date 2024-08-06T16:01:10+0300
; FORMAT={-:-/ absolute / inch / decimal}
; #@! TF.CreationDate,2024-08-06T16:01:10+03:00
; #@! TF.GenerationSoftware,Kicad,Pcbnew,8.0.4
; #@! TF.FileFunction,Plated,1,2,PTH
FMAT,2
INCH
; #@! TA.AperFunction,Plated,PTH,ViaDrill
T1C0.0118
; #@! TA.AperFunction,Plated,PTH,ComponentDrill
T2C0.0315
; #@! TA.AperFunction,Plated,PTH,ComponentDrill
T3C0.0362
; #@! TA.AperFunction,Plated,PTH,ComponentDrill
T4C0.0394
; #@! TA.AperFunction,Plated,PTH,ComponentDrill
T5C0.0906
; #@! TA.AperFunction,Plated,PTH,ViaDrill
T6C0.1181
%
G90
G05
T1
X5.7795Y-4.1575
X5.7795Y-4.374
X5.8386Y-4.0197
X6.0551Y-3.7638
X6.0551Y-3.8465
X6.0709Y-4.0748
X6.1339Y-4.0394
X6.2913Y-3.8819
X6.2913Y-4.1969
X6.3701Y-4.2559
X6.3701Y-4.4331
T2
X6.5276Y-3.4291
X6.5276Y-3.6969
X6.6378Y-3.4291
X6.6378Y-3.5118
X6.6378Y-3.6142
X6.6378Y-3.6969
T3
X6.4602Y-4.1799
X6.4602Y-4.2783
X6.4602Y-4.3571
X6.4602Y-4.4555
T4
X4.6693Y-3.3307
X4.6709Y-4.315
X4.6724Y-3.5236
X4.6724Y-4.1236
X4.7693Y-3.3307
X4.7709Y-4.315
X4.7724Y-3.5236
X4.7724Y-4.1236
X4.8693Y-3.3307
X4.8709Y-4.315
X4.8724Y-3.5236
X4.8724Y-4.1236
X4.9693Y-3.3307
X4.9709Y-4.315
X4.9724Y-3.5236
X4.9724Y-4.1236
X5.0693Y-3.3307
X5.0709Y-4.315
X5.0724Y-3.5236
X5.0724Y-4.1236
X5.1693Y-3.3307
X5.1709Y-4.315
X5.1724Y-3.5236
X5.1724Y-4.1236
X5.2693Y-3.3307
X5.2709Y-4.315
X5.2724Y-3.5236
X5.2724Y-4.1236
X5.3693Y-3.3307
X5.3709Y-4.315
X5.3724Y-3.5236
X5.3724Y-4.1236
X5.4693Y-3.3307
X5.4709Y-4.315
X5.4724Y-3.5236
X5.4724Y-3.6236
X5.4724Y-3.7236
X5.4724Y-3.8236
X5.4724Y-3.9236
X5.4724Y-4.0236
X5.4724Y-4.1236
X5.6811Y-3.6213
X5.6811Y-3.7213
X5.6811Y-3.8213
X5.6811Y-3.9213
X5.6811Y-4.0213
X5.6811Y-4.2724
X5.6811Y-4.3724
X5.6811Y-4.4724
X5.6811Y-4.5724
X5.878Y-4.274
X5.878Y-4.374
X5.878Y-4.474
X5.878Y-4.574
X6.0748Y-4.2402
X6.0748Y-4.4291
X6.5709Y-3.0945
X6.7598Y-3.0945
T5
X6.5669Y-4.0591
X6.5669Y-4.5764
T6
X4.7165Y-3.0945
X4.7205Y-4.7559
X6.9409Y-3.0984
X6.9449Y-4.752
T4
G00X6.7205Y-3.2933
M15
G01X6.7795Y-3.2933
M16
G05
G00X6.7205Y-3.8327
M15
G01X6.7795Y-3.8327
M16
G05
G00X6.7815Y-3.6024
M15
G01X6.7815Y-3.5236
M16
G05
M30
