%TF.GenerationSoftware,KiCad,Pcbnew,8.0.4*%
%TF.CreationDate,2024-08-06T16:01:06+03:00*%
%TF.ProjectId,ps2usb,70733275-7362-42e6-9b69-6361645f7063,rev?*%
%TF.SameCoordinates,Original*%
%TF.FileFunction,Soldermask,Top*%
%TF.FilePolarity,Negative*%
%FSLAX46Y46*%
G04 Gerber Fmt 4.6, Leading zero omitted, Abs format (unit mm)*
G04 Created by KiCad (PCBNEW 8.0.4) date 2024-08-06 16:01:06*
%MOMM*%
%LPD*%
G01*
G04 APERTURE LIST*
G04 Aperture macros list*
%AMRoundRect*
0 Rectangle with rounded corners*
0 $1 Rounding radius*
0 $2 $3 $4 $5 $6 $7 $8 $9 X,Y pos of 4 corners*
0 Add a 4 corners polygon primitive as box body*
4,1,4,$2,$3,$4,$5,$6,$7,$8,$9,$2,$3,0*
0 Add four circle primitives for the rounded corners*
1,1,$1+$1,$2,$3*
1,1,$1+$1,$4,$5*
1,1,$1+$1,$6,$7*
1,1,$1+$1,$8,$9*
0 Add four rect primitives between the rounded corners*
20,1,$1+$1,$2,$3,$4,$5,0*
20,1,$1+$1,$4,$5,$6,$7,0*
20,1,$1+$1,$6,$7,$8,$9,0*
20,1,$1+$1,$8,$9,$2,$3,0*%
%AMFreePoly0*
4,1,19,0.500000,-0.750000,0.000000,-0.750000,0.000000,-0.744911,-0.071157,-0.744911,-0.207708,-0.704816,-0.327430,-0.627875,-0.420627,-0.520320,-0.479746,-0.390866,-0.500000,-0.250000,-0.500000,0.250000,-0.479746,0.390866,-0.420627,0.520320,-0.327430,0.627875,-0.207708,0.704816,-0.071157,0.744911,0.000000,0.744911,0.000000,0.750000,0.500000,0.750000,0.500000,-0.750000,0.500000,-0.750000,
$1*%
%AMFreePoly1*
4,1,19,0.000000,0.744911,0.071157,0.744911,0.207708,0.704816,0.327430,0.627875,0.420627,0.520320,0.479746,0.390866,0.500000,0.250000,0.500000,-0.250000,0.479746,-0.390866,0.420627,-0.520320,0.327430,-0.627875,0.207708,-0.704816,0.071157,-0.744911,0.000000,-0.744911,0.000000,-0.750000,-0.500000,-0.750000,-0.500000,0.750000,0.000000,0.750000,0.000000,0.744911,0.000000,0.744911,
$1*%
G04 Aperture macros list end*
%ADD10C,1.700000*%
%ADD11RoundRect,0.250000X0.350000X0.450000X-0.350000X0.450000X-0.350000X-0.450000X0.350000X-0.450000X0*%
%ADD12RoundRect,0.250000X0.450000X-0.350000X0.450000X0.350000X-0.450000X0.350000X-0.450000X-0.350000X0*%
%ADD13O,1.500000X1.500000*%
%ADD14O,1.500000X2.500000*%
%ADD15O,2.500000X1.500000*%
%ADD16R,1.700000X1.700000*%
%ADD17O,1.700000X1.700000*%
%ADD18C,1.600000*%
%ADD19O,3.500000X2.000000*%
%ADD20O,2.000000X4.000000*%
%ADD21R,1.600000X1.600000*%
%ADD22FreePoly0,90.000000*%
%ADD23FreePoly1,90.000000*%
%ADD24R,1.524000X1.524000*%
%ADD25C,1.524000*%
%ADD26C,3.500000*%
G04 APERTURE END LIST*
D10*
%TO.C,LED1*%
X171700000Y-78600000D03*
D11*
X170300000Y-78600000D03*
X168300000Y-78600000D03*
D10*
X166900000Y-78600000D03*
%TD*%
%TO.C,R1*%
X154300000Y-112500000D03*
D12*
X154300000Y-111100000D03*
X154300000Y-109100000D03*
D10*
X154300000Y-107700000D03*
%TD*%
D13*
%TO.C,RZ1*%
X118680000Y-89500000D03*
D14*
X118680000Y-89000000D03*
D13*
X121220000Y-89500000D03*
D14*
X121220000Y-89000000D03*
D13*
X123760000Y-89500000D03*
D14*
X123760000Y-89000000D03*
D13*
X126300000Y-89500000D03*
D14*
X126300000Y-89000000D03*
D13*
X128840000Y-89500000D03*
D14*
X128840000Y-89000000D03*
D13*
X131380000Y-89500000D03*
D14*
X131380000Y-89000000D03*
D13*
X133920000Y-89500000D03*
D14*
X133920000Y-89000000D03*
D13*
X136460000Y-89500000D03*
D14*
X136460000Y-89000000D03*
D13*
X139000000Y-89500000D03*
D14*
X139000000Y-89000000D03*
D13*
X139000000Y-92040000D03*
D15*
X139500000Y-92040000D03*
D13*
X139000000Y-94580000D03*
D15*
X139500000Y-94580000D03*
D13*
X139000000Y-97120000D03*
D15*
X139500000Y-97120000D03*
D13*
X139000000Y-99660000D03*
D15*
X139500000Y-99660000D03*
D13*
X139000000Y-102200000D03*
D15*
X139500000Y-102200000D03*
D14*
X139000000Y-105240000D03*
D13*
X139000000Y-104740000D03*
D14*
X136460000Y-105240000D03*
D13*
X136460000Y-104740000D03*
D14*
X133920000Y-105240000D03*
D13*
X133920000Y-104740000D03*
D14*
X131380000Y-105240000D03*
D13*
X131380000Y-104740000D03*
D14*
X128840000Y-105240000D03*
D13*
X128840000Y-104740000D03*
D14*
X126300000Y-105240000D03*
D13*
X126300000Y-104740000D03*
D14*
X123760000Y-105240000D03*
D13*
X123760000Y-104740000D03*
D14*
X118680000Y-105240000D03*
D13*
X118680000Y-104740000D03*
D14*
X121220000Y-105240000D03*
D13*
X121220000Y-104740000D03*
%TD*%
D16*
%TO.C,RPZC1*%
X118640000Y-109600000D03*
D17*
X121180000Y-109600000D03*
X123720000Y-109600000D03*
X126260000Y-109600000D03*
X128800000Y-109600000D03*
X131340000Y-109600000D03*
X133880000Y-109600000D03*
X136420000Y-109600000D03*
X138960000Y-109600000D03*
%TD*%
D16*
%TO.C,KEYBOARD1*%
X144300000Y-116140000D03*
D17*
X144300000Y-113600000D03*
X144300000Y-111060000D03*
X144300000Y-108520000D03*
%TD*%
D18*
%TO.C,PS/2*%
X168600000Y-89200000D03*
X168600000Y-91800000D03*
D19*
X171450000Y-97350000D03*
D20*
X172250000Y-90500000D03*
D18*
X168600000Y-87100000D03*
D19*
X171450000Y-83650000D03*
D21*
X168600000Y-93900000D03*
D18*
X165800000Y-87100000D03*
X165800000Y-93900000D03*
%TD*%
D22*
%TO.C,JP2*%
X159800000Y-115100000D03*
D23*
X159800000Y-113800000D03*
%TD*%
D24*
%TO.C,USB1*%
X164090000Y-113170000D03*
D25*
X164090000Y-110670000D03*
X164090000Y-108670000D03*
X164090000Y-106170000D03*
D26*
X166800000Y-116240000D03*
X166800000Y-103100000D03*
%TD*%
D17*
%TO.C,RPZC3*%
X118600000Y-84600000D03*
X121140000Y-84600000D03*
X123680000Y-84600000D03*
X126220000Y-84600000D03*
X128760000Y-84600000D03*
X131300000Y-84600000D03*
X133840000Y-84600000D03*
X136380000Y-84600000D03*
X138920000Y-84600000D03*
%TD*%
D16*
%TO.C,MOUSE1*%
X149300000Y-116180000D03*
D17*
X149300000Y-113640000D03*
X149300000Y-111100000D03*
X149300000Y-108560000D03*
%TD*%
%TO.C,RPZC2*%
X144300000Y-91980000D03*
X144300000Y-94520000D03*
X144300000Y-97060000D03*
X144300000Y-99600000D03*
X144300000Y-102140000D03*
%TD*%
D22*
%TO.C,JP1*%
X159800000Y-111400000D03*
D23*
X159800000Y-110100000D03*
%TD*%
M02*
