%TF.GenerationSoftware,KiCad,Pcbnew,8.0.4*%
%TF.CreationDate,2024-08-06T16:01:05+03:00*%
%TF.ProjectId,ps2usb,70733275-7362-42e6-9b69-6361645f7063,rev?*%
%TF.SameCoordinates,Original*%
%TF.FileFunction,Copper,L1,Top*%
%TF.FilePolarity,Positive*%
%FSLAX46Y46*%
G04 Gerber Fmt 4.6, Leading zero omitted, Abs format (unit mm)*
G04 Created by KiCad (PCBNEW 8.0.4) date 2024-08-06 16:01:05*
%MOMM*%
%LPD*%
G01*
G04 APERTURE LIST*
G04 Aperture macros list*
%AMRoundRect*
0 Rectangle with rounded corners*
0 $1 Rounding radius*
0 $2 $3 $4 $5 $6 $7 $8 $9 X,Y pos of 4 corners*
0 Add a 4 corners polygon primitive as box body*
4,1,4,$2,$3,$4,$5,$6,$7,$8,$9,$2,$3,0*
0 Add four circle primitives for the rounded corners*
1,1,$1+$1,$2,$3*
1,1,$1+$1,$4,$5*
1,1,$1+$1,$6,$7*
1,1,$1+$1,$8,$9*
0 Add four rect primitives between the rounded corners*
20,1,$1+$1,$2,$3,$4,$5,0*
20,1,$1+$1,$4,$5,$6,$7,0*
20,1,$1+$1,$6,$7,$8,$9,0*
20,1,$1+$1,$8,$9,$2,$3,0*%
%AMFreePoly0*
4,1,19,0.500000,-0.750000,0.000000,-0.750000,0.000000,-0.744911,-0.071157,-0.744911,-0.207708,-0.704816,-0.327430,-0.627875,-0.420627,-0.520320,-0.479746,-0.390866,-0.500000,-0.250000,-0.500000,0.250000,-0.479746,0.390866,-0.420627,0.520320,-0.327430,0.627875,-0.207708,0.704816,-0.071157,0.744911,0.000000,0.744911,0.000000,0.750000,0.500000,0.750000,0.500000,-0.750000,0.500000,-0.750000,
$1*%
%AMFreePoly1*
4,1,19,0.000000,0.744911,0.071157,0.744911,0.207708,0.704816,0.327430,0.627875,0.420627,0.520320,0.479746,0.390866,0.500000,0.250000,0.500000,-0.250000,0.479746,-0.390866,0.420627,-0.520320,0.327430,-0.627875,0.207708,-0.704816,0.071157,-0.744911,0.000000,-0.744911,0.000000,-0.750000,-0.500000,-0.750000,-0.500000,0.750000,0.000000,0.750000,0.000000,0.744911,0.000000,0.744911,
$1*%
G04 Aperture macros list end*
%TA.AperFunction,ComponentPad*%
%ADD10C,1.700000*%
%TD*%
%TA.AperFunction,SMDPad,CuDef*%
%ADD11RoundRect,0.250000X0.350000X0.450000X-0.350000X0.450000X-0.350000X-0.450000X0.350000X-0.450000X0*%
%TD*%
%TA.AperFunction,SMDPad,CuDef*%
%ADD12RoundRect,0.250000X0.450000X-0.350000X0.450000X0.350000X-0.450000X0.350000X-0.450000X-0.350000X0*%
%TD*%
%TA.AperFunction,ComponentPad*%
%ADD13O,1.500000X1.500000*%
%TD*%
%TA.AperFunction,SMDPad,CuDef*%
%ADD14O,1.500000X2.500000*%
%TD*%
%TA.AperFunction,SMDPad,CuDef*%
%ADD15O,2.500000X1.500000*%
%TD*%
%TA.AperFunction,ComponentPad*%
%ADD16R,1.700000X1.700000*%
%TD*%
%TA.AperFunction,ComponentPad*%
%ADD17O,1.700000X1.700000*%
%TD*%
%TA.AperFunction,ComponentPad*%
%ADD18C,1.600000*%
%TD*%
%TA.AperFunction,ComponentPad*%
%ADD19O,3.500000X2.000000*%
%TD*%
%TA.AperFunction,ComponentPad*%
%ADD20O,2.000000X4.000000*%
%TD*%
%TA.AperFunction,ComponentPad*%
%ADD21R,1.600000X1.600000*%
%TD*%
%TA.AperFunction,SMDPad,CuDef*%
%ADD22FreePoly0,90.000000*%
%TD*%
%TA.AperFunction,SMDPad,CuDef*%
%ADD23FreePoly1,90.000000*%
%TD*%
%TA.AperFunction,ComponentPad*%
%ADD24R,1.524000X1.524000*%
%TD*%
%TA.AperFunction,ComponentPad*%
%ADD25C,1.524000*%
%TD*%
%TA.AperFunction,ComponentPad*%
%ADD26C,3.500000*%
%TD*%
%TA.AperFunction,ViaPad*%
%ADD27C,0.600000*%
%TD*%
%TA.AperFunction,ViaPad*%
%ADD28C,4.000000*%
%TD*%
%TA.AperFunction,Conductor*%
%ADD29C,0.250000*%
%TD*%
%TA.AperFunction,Conductor*%
%ADD30C,0.500000*%
%TD*%
%TA.AperFunction,Conductor*%
%ADD31C,0.350000*%
%TD*%
G04 APERTURE END LIST*
D10*
%TO.P,LED1,1,K*%
%TO.N,GND*%
X171700000Y-78600000D03*
D11*
X170300000Y-78600000D03*
%TO.P,LED1,2,A*%
%TO.N,Net-(LED1-A)*%
X168300000Y-78600000D03*
D10*
X166900000Y-78600000D03*
%TD*%
%TO.P,R1,1*%
%TO.N,+5V*%
X154300000Y-112500000D03*
D12*
X154300000Y-111100000D03*
%TO.P,R1,2*%
%TO.N,Net-(LED1-A)*%
X154300000Y-109100000D03*
D10*
X154300000Y-107700000D03*
%TD*%
D13*
%TO.P,RZ1,1,GP0*%
%TO.N,/GP0*%
X118680000Y-89500000D03*
D14*
X118680000Y-89000000D03*
D13*
%TO.P,RZ1,2,GP1*%
%TO.N,/GP1*%
X121220000Y-89500000D03*
D14*
X121220000Y-89000000D03*
D13*
%TO.P,RZ1,3,GP2*%
%TO.N,/GP2*%
X123760000Y-89500000D03*
D14*
X123760000Y-89000000D03*
D13*
%TO.P,RZ1,4,GP3*%
%TO.N,/GP3*%
X126300000Y-89500000D03*
D14*
X126300000Y-89000000D03*
D13*
%TO.P,RZ1,5,GP4*%
%TO.N,/GP4*%
X128840000Y-89500000D03*
D14*
X128840000Y-89000000D03*
D13*
%TO.P,RZ1,6,GP5*%
%TO.N,/GP5*%
X131380000Y-89500000D03*
D14*
X131380000Y-89000000D03*
D13*
%TO.P,RZ1,7,GP6*%
%TO.N,/GP6*%
X133920000Y-89500000D03*
D14*
X133920000Y-89000000D03*
D13*
%TO.P,RZ1,8,GP7*%
%TO.N,/GP7*%
X136460000Y-89500000D03*
D14*
X136460000Y-89000000D03*
D13*
%TO.P,RZ1,9,GP8*%
%TO.N,/GP8*%
X139000000Y-89500000D03*
D14*
X139000000Y-89000000D03*
D13*
%TO.P,RZ1,10,GP9*%
%TO.N,/GP9*%
X139000000Y-92040000D03*
D15*
X139500000Y-92040000D03*
D13*
%TO.P,RZ1,11,GP10*%
%TO.N,/GP10*%
X139000000Y-94580000D03*
D15*
X139500000Y-94580000D03*
D13*
%TO.P,RZ1,12,GP11*%
%TO.N,/DATA_KB*%
X139000000Y-97120000D03*
D15*
X139500000Y-97120000D03*
D13*
%TO.P,RZ1,13,GP12*%
%TO.N,/CLK_KB*%
X139000000Y-99660000D03*
D15*
X139500000Y-99660000D03*
D13*
%TO.P,RZ1,14,GP13*%
%TO.N,/GP13*%
X139000000Y-102200000D03*
D15*
X139500000Y-102200000D03*
D14*
%TO.P,RZ1,15,GP14*%
%TO.N,/DATA_MS*%
X139000000Y-105240000D03*
D13*
X139000000Y-104740000D03*
D14*
%TO.P,RZ1,16,GP15*%
%TO.N,/CLK_MS*%
X136460000Y-105240000D03*
D13*
X136460000Y-104740000D03*
D14*
%TO.P,RZ1,17,GP26*%
%TO.N,/GP26*%
X133920000Y-105240000D03*
D13*
X133920000Y-104740000D03*
D14*
%TO.P,RZ1,18,GP27*%
%TO.N,/GP27*%
X131380000Y-105240000D03*
D13*
X131380000Y-104740000D03*
D14*
%TO.P,RZ1,19,GP28*%
%TO.N,/GP28*%
X128840000Y-105240000D03*
D13*
X128840000Y-104740000D03*
D14*
%TO.P,RZ1,20,GP29*%
%TO.N,/GP29*%
X126300000Y-105240000D03*
D13*
X126300000Y-104740000D03*
D14*
%TO.P,RZ1,21,3V3*%
%TO.N,+3.3V*%
X123760000Y-105240000D03*
D13*
X123760000Y-104740000D03*
D14*
%TO.P,RZ1,22,5V*%
%TO.N,+5V*%
X118680000Y-105240000D03*
D13*
X118680000Y-104740000D03*
D14*
%TO.P,RZ1,23,GND*%
%TO.N,GND*%
X121220000Y-105240000D03*
D13*
X121220000Y-104740000D03*
%TD*%
D16*
%TO.P,RPZC1,1,Pin_1*%
%TO.N,+5V*%
X118640000Y-109600000D03*
D17*
%TO.P,RPZC1,2,Pin_2*%
%TO.N,GND*%
X121180000Y-109600000D03*
%TO.P,RPZC1,3,Pin_3*%
%TO.N,+3.3V*%
X123720000Y-109600000D03*
%TO.P,RPZC1,4,Pin_4*%
%TO.N,/GP29*%
X126260000Y-109600000D03*
%TO.P,RPZC1,5,Pin_5*%
%TO.N,/GP28*%
X128800000Y-109600000D03*
%TO.P,RPZC1,6,Pin_6*%
%TO.N,/GP27*%
X131340000Y-109600000D03*
%TO.P,RPZC1,7,Pin_7*%
%TO.N,/GP26*%
X133880000Y-109600000D03*
%TO.P,RPZC1,8,Pin_8*%
%TO.N,/CLK_MS*%
X136420000Y-109600000D03*
%TO.P,RPZC1,9,Pin_9*%
%TO.N,/DATA_MS*%
X138960000Y-109600000D03*
%TD*%
D16*
%TO.P,KEYBOARD1,1,Pin_1*%
%TO.N,+5V*%
X144300000Y-116140000D03*
D17*
%TO.P,KEYBOARD1,2,Pin_2*%
%TO.N,/CLK_KB*%
X144300000Y-113600000D03*
%TO.P,KEYBOARD1,3,Pin_3*%
%TO.N,/DATA_KB*%
X144300000Y-111060000D03*
%TO.P,KEYBOARD1,4,Pin_4*%
%TO.N,GND*%
X144300000Y-108520000D03*
%TD*%
D18*
%TO.P,PS/2,1*%
%TO.N,/DATA_KB*%
X168600000Y-89200000D03*
%TO.P,PS/2,2*%
%TO.N,/DATA_MS*%
X168600000Y-91800000D03*
D19*
%TO.P,PS/2,3*%
%TO.N,GND*%
X171450000Y-97350000D03*
D20*
X172250000Y-90500000D03*
D18*
X168600000Y-87100000D03*
D19*
X171450000Y-83650000D03*
D21*
%TO.P,PS/2,4*%
%TO.N,+5V*%
X168600000Y-93900000D03*
D18*
%TO.P,PS/2,5*%
%TO.N,/CLK_KB*%
X165800000Y-87100000D03*
%TO.P,PS/2,6*%
%TO.N,/CLK_MS*%
X165800000Y-93900000D03*
%TD*%
D22*
%TO.P,JP2,1,A*%
%TO.N,Net-(JP2-A)*%
X159800000Y-115100000D03*
D23*
%TO.P,JP2,2,B*%
%TO.N,/DATA_KB*%
X159800000Y-113800000D03*
%TD*%
D24*
%TO.P,USB1,1,VBUS*%
%TO.N,+5V*%
X164090000Y-113170000D03*
D25*
%TO.P,USB1,2,D-*%
%TO.N,Net-(JP2-A)*%
X164090000Y-110670000D03*
%TO.P,USB1,3,D+*%
%TO.N,Net-(JP1-A)*%
X164090000Y-108670000D03*
%TO.P,USB1,4,GND*%
%TO.N,GND*%
X164090000Y-106170000D03*
D26*
%TO.P,USB1,5,Shield*%
X166800000Y-116240000D03*
X166800000Y-103100000D03*
%TD*%
D17*
%TO.P,RPZC3,1,Pin_1*%
%TO.N,/GP0*%
X118600000Y-84600000D03*
%TO.P,RPZC3,2,Pin_2*%
%TO.N,/GP1*%
X121140000Y-84600000D03*
%TO.P,RPZC3,3,Pin_3*%
%TO.N,/GP2*%
X123680000Y-84600000D03*
%TO.P,RPZC3,4,Pin_4*%
%TO.N,/GP3*%
X126220000Y-84600000D03*
%TO.P,RPZC3,5,Pin_5*%
%TO.N,/GP4*%
X128760000Y-84600000D03*
%TO.P,RPZC3,6,Pin_6*%
%TO.N,/GP5*%
X131300000Y-84600000D03*
%TO.P,RPZC3,7,Pin_7*%
%TO.N,/GP6*%
X133840000Y-84600000D03*
%TO.P,RPZC3,8,Pin_8*%
%TO.N,/GP7*%
X136380000Y-84600000D03*
%TO.P,RPZC3,9,Pin_9*%
%TO.N,/GP8*%
X138920000Y-84600000D03*
%TD*%
D16*
%TO.P,MOUSE1,1,Pin_1*%
%TO.N,+5V*%
X149300000Y-116180000D03*
D17*
%TO.P,MOUSE1,2,Pin_2*%
%TO.N,/CLK_MS*%
X149300000Y-113640000D03*
%TO.P,MOUSE1,3,Pin_3*%
%TO.N,/DATA_MS*%
X149300000Y-111100000D03*
%TO.P,MOUSE1,4,Pin_4*%
%TO.N,GND*%
X149300000Y-108560000D03*
%TD*%
%TO.P,RPZC2,1,Pin_1*%
%TO.N,/GP9*%
X144300000Y-91980000D03*
%TO.P,RPZC2,2,Pin_2*%
%TO.N,/GP10*%
X144300000Y-94520000D03*
%TO.P,RPZC2,3,Pin_3*%
%TO.N,/DATA_KB*%
X144300000Y-97060000D03*
%TO.P,RPZC2,4,Pin_4*%
%TO.N,/CLK_KB*%
X144300000Y-99600000D03*
%TO.P,RPZC2,5,Pin_5*%
%TO.N,/GP13*%
X144300000Y-102140000D03*
%TD*%
D22*
%TO.P,JP1,1,A*%
%TO.N,Net-(JP1-A)*%
X159800000Y-111400000D03*
D23*
%TO.P,JP1,2,B*%
%TO.N,/CLK_KB*%
X159800000Y-110100000D03*
%TD*%
D27*
%TO.N,/DATA_KB*%
X148300000Y-102100000D03*
X146800000Y-105600000D03*
X146800000Y-111100000D03*
X161800000Y-112600000D03*
X161800000Y-108100000D03*
%TO.N,/CLK_KB*%
X159800000Y-106600000D03*
D28*
%TO.N,*%
X119900000Y-120800000D03*
X176400000Y-120700000D03*
X119800000Y-78600000D03*
X176300000Y-78700000D03*
D27*
%TO.N,/CLK_KB*%
X155800000Y-102600000D03*
X159800000Y-98600000D03*
%TO.N,Net-(LED1-A)*%
X153800000Y-97700000D03*
X154200000Y-103500000D03*
X153800000Y-95600000D03*
%TD*%
D29*
%TO.N,Net-(LED1-A)*%
X153800000Y-95600000D02*
X166950000Y-82450000D01*
X166950000Y-82450000D02*
X166950000Y-78600000D01*
D30*
%TO.N,GND*%
X171450000Y-83650000D02*
X171450000Y-78800000D01*
X171450000Y-78800000D02*
X171650000Y-78600000D01*
D29*
%TO.N,/DATA_KB*%
X144300000Y-97060000D02*
X148800000Y-97060000D01*
X148300000Y-102100000D02*
X148300000Y-97560000D01*
X148300000Y-97560000D02*
X148800000Y-97060000D01*
X148800000Y-97060000D02*
X151240000Y-97060000D01*
D31*
X146800000Y-111100000D02*
X146800000Y-105600000D01*
D29*
X161800000Y-112600000D02*
X161800000Y-113600000D01*
X161800000Y-113600000D02*
X160000000Y-113600000D01*
X160000000Y-113600000D02*
X159800000Y-113800000D01*
X161800000Y-103100000D02*
X161800000Y-108100000D01*
X170300000Y-94600000D02*
X161800000Y-103100000D01*
D31*
%TO.N,Net-(JP2-A)*%
X164300000Y-115100000D02*
X165800000Y-113600000D01*
X165800000Y-112380000D02*
X164090000Y-110670000D01*
X159800000Y-115100000D02*
X164300000Y-115100000D01*
X165800000Y-113600000D02*
X165800000Y-112380000D01*
%TO.N,/CLK_KB*%
X159800000Y-106600000D02*
X159800000Y-110100000D01*
%TO.N,Net-(JP1-A)*%
X159800000Y-111400000D02*
X161360000Y-111400000D01*
X161360000Y-111400000D02*
X164090000Y-108670000D01*
D30*
%TO.N,GND*%
X166800000Y-120100000D02*
X166800000Y-116240000D01*
X172250000Y-96550000D02*
X171450000Y-97350000D01*
X171450000Y-98450000D02*
X166800000Y-103100000D01*
X132800000Y-111600000D02*
X132800000Y-113350000D01*
X172300000Y-87100000D02*
X172300000Y-90450000D01*
X172300000Y-86100000D02*
X171450000Y-85250000D01*
X172300000Y-87100000D02*
X172300000Y-86100000D01*
X121180000Y-109600000D02*
X121180000Y-104720000D01*
X171450000Y-85250000D02*
X171450000Y-83650000D01*
X168600000Y-87100000D02*
X172300000Y-87100000D01*
X166800000Y-103100000D02*
X166800000Y-116240000D01*
X120800000Y-109980000D02*
X121180000Y-109600000D01*
X172250000Y-90500000D02*
X172250000Y-96550000D01*
X140550000Y-121100000D02*
X165800000Y-121100000D01*
X165800000Y-121100000D02*
X166800000Y-120100000D01*
X166800000Y-103100000D02*
X166800000Y-103460000D01*
X166800000Y-103460000D02*
X164090000Y-106170000D01*
X172300000Y-90450000D02*
X172250000Y-90500000D01*
X120800000Y-111600000D02*
X120800000Y-109980000D01*
X132800000Y-111600000D02*
X120800000Y-111600000D01*
X132800000Y-113350000D02*
X140550000Y-121100000D01*
X171450000Y-97350000D02*
X171450000Y-98450000D01*
%TO.N,+5V*%
X157300000Y-106600000D02*
X157300000Y-112600000D01*
X168600000Y-95300000D02*
X157300000Y-106600000D01*
X154300000Y-112450000D02*
X150570000Y-116180000D01*
X150570000Y-116180000D02*
X149300000Y-116180000D01*
X157300000Y-112600000D02*
X154450000Y-112600000D01*
X154450000Y-112600000D02*
X154300000Y-112450000D01*
X168600000Y-93900000D02*
X168600000Y-95300000D01*
X118640000Y-109600000D02*
X118640000Y-104720000D01*
D29*
%TO.N,/CLK_KB*%
X158300000Y-110100000D02*
X159800000Y-110100000D01*
X158300000Y-117600000D02*
X158300000Y-110100000D01*
X139000000Y-99600000D02*
X138960000Y-99640000D01*
D31*
X155800000Y-102600000D02*
X159800000Y-98600000D01*
D29*
X144300000Y-99600000D02*
X139000000Y-99600000D01*
X147800000Y-113600000D02*
X147800000Y-117600000D01*
X147800000Y-117600000D02*
X158300000Y-117600000D01*
X144300000Y-113600000D02*
X147800000Y-113600000D01*
%TO.N,/DATA_KB*%
X160000000Y-96700000D02*
X166700000Y-90000000D01*
X170300000Y-90600000D02*
X168900000Y-89200000D01*
X168900000Y-89200000D02*
X168600000Y-89200000D01*
X170300000Y-94600000D02*
X170300000Y-90600000D01*
X144300000Y-97060000D02*
X139000000Y-97060000D01*
X166700000Y-90000000D02*
X167800000Y-90000000D01*
X151240000Y-97060000D02*
X151600000Y-96700000D01*
X139000000Y-97060000D02*
X138960000Y-97100000D01*
X151600000Y-96700000D02*
X160000000Y-96700000D01*
X167800000Y-90000000D02*
X168600000Y-89200000D01*
%TO.N,/DATA_MS*%
X138960000Y-109600000D02*
X138960000Y-104720000D01*
%TO.N,/CLK_MS*%
X136420000Y-111220000D02*
X136800000Y-111600000D01*
X141300000Y-111600000D02*
X141300000Y-109100000D01*
X149300000Y-113640000D02*
X152300000Y-110640000D01*
X136420000Y-109600000D02*
X136420000Y-104720000D01*
X156800000Y-104600000D02*
X165800000Y-95600000D01*
X141300000Y-109100000D02*
X145800000Y-104600000D01*
X136800000Y-111600000D02*
X141300000Y-111600000D01*
X165800000Y-95600000D02*
X165800000Y-93900000D01*
X152300000Y-110640000D02*
X152300000Y-104600000D01*
X136420000Y-109600000D02*
X136420000Y-111220000D01*
X152300000Y-104600000D02*
X156800000Y-104600000D01*
X145800000Y-104600000D02*
X152300000Y-104600000D01*
%TO.N,/GP3*%
X126220000Y-84600000D02*
X126220000Y-89440000D01*
X126220000Y-89440000D02*
X126260000Y-89480000D01*
%TO.N,/GP6*%
X133840000Y-89440000D02*
X133880000Y-89480000D01*
X133840000Y-84600000D02*
X133840000Y-89440000D01*
%TO.N,/GP5*%
X131300000Y-89440000D02*
X131340000Y-89480000D01*
X131300000Y-84600000D02*
X131300000Y-89440000D01*
%TO.N,/GP26*%
X133880000Y-109600000D02*
X133880000Y-104720000D01*
%TO.N,/GP1*%
X121140000Y-89440000D02*
X121180000Y-89480000D01*
X121140000Y-84600000D02*
X121140000Y-89440000D01*
%TO.N,/GP13*%
X139000000Y-102140000D02*
X138960000Y-102180000D01*
X144300000Y-102140000D02*
X139000000Y-102140000D01*
%TO.N,/GP10*%
X139000000Y-94520000D02*
X138960000Y-94560000D01*
X144300000Y-94520000D02*
X139000000Y-94520000D01*
%TO.N,/GP8*%
X138920000Y-84600000D02*
X138920000Y-89440000D01*
X138920000Y-89440000D02*
X138960000Y-89480000D01*
%TO.N,/GP4*%
X128760000Y-89440000D02*
X128800000Y-89480000D01*
X128760000Y-84600000D02*
X128760000Y-89440000D01*
D30*
%TO.N,+3.3V*%
X123720000Y-109600000D02*
X123720000Y-104720000D01*
D29*
%TO.N,/GP7*%
X136380000Y-89440000D02*
X136420000Y-89480000D01*
X136380000Y-84600000D02*
X136380000Y-89440000D01*
%TO.N,/GP0*%
X118600000Y-89440000D02*
X118640000Y-89480000D01*
X118600000Y-84600000D02*
X118600000Y-89440000D01*
%TO.N,/GP9*%
X139000000Y-91980000D02*
X138960000Y-92020000D01*
X144300000Y-91980000D02*
X139000000Y-91980000D01*
%TO.N,/GP2*%
X123680000Y-89440000D02*
X123720000Y-89480000D01*
X123680000Y-84600000D02*
X123680000Y-89440000D01*
%TO.N,/GP27*%
X131340000Y-109600000D02*
X131340000Y-104720000D01*
%TO.N,/GP28*%
X128800000Y-109600000D02*
X128800000Y-104720000D01*
%TO.N,/GP29*%
X126260000Y-109600000D02*
X126260000Y-104720000D01*
%TO.N,Net-(LED1-A)*%
X153800000Y-103100000D02*
X154200000Y-103500000D01*
X153800000Y-97700000D02*
X153800000Y-103100000D01*
%TD*%
M02*
